<svg width="400" height="960" viewBox="0 0 400 960" fill="none" xmlns="http://www.w3.org/2000/svg">
  <!-- Google Pixel Frame -->
  <defs>
    <linearGradient id="pixelGradient" x1="0%" y1="0%" x2="100%" y2="100%">
      <stop offset="0%" style="stop-color:#1f2937;stop-opacity:1" />
      <stop offset="100%" style="stop-color:#111827;stop-opacity:1" />
    </linearGradient>
    <filter id="pixelShadow" x="-20%" y="-20%" width="140%" height="140%">
      <feDropShadow dx="0" dy="8" stdDeviation="16" flood-color="#000000" flood-opacity="0.3"/>
    </filter>
  </defs>
  
  <!-- Device Shadow -->
  <rect x="12" y="12" width="376" height="936" rx="25" ry="25" fill="black" opacity="0.15" filter="url(#pixelShadow)"/>
  
  <!-- Device Body -->
  <rect x="0" y="0" width="400" height="960" rx="25" ry="25" fill="url(#pixelGradient)" stroke="#374151" stroke-width="2"/>
  
  <!-- Screen Area -->
  <rect x="30" y="140" width="340" height="680" rx="15" ry="15" fill="#000000"/>
  
  <!-- Screen Glass Effect -->
  <rect x="30" y="140" width="340" height="680" rx="15" ry="15" fill="url(#pixelGlass)" opacity="0.1"/>
  
  <!-- Front Camera -->
  <circle cx="200" cy="80" r="12" fill="#374151"/>
  
  <!-- Speaker -->
  <rect x="150" y="50" width="100" height="6" rx="3" ry="3" fill="#4b5563"/>
  
  <!-- Google Logo Area -->
  <rect x="180" y="100" width="40" height="15" rx="2" ry="2" fill="#4285f4" opacity="0.3"/>
  
  <!-- Navigation Bar -->
  <rect x="30" y="830" width="340" height="60" rx="15" ry="15" fill="#1f2937"/>
  
  <!-- Navigation Buttons -->
  <circle cx="120" cy="860" r="8" fill="#6b7280"/>
  <circle cx="200" cy="860" r="8" fill="#6b7280"/>
  <circle cx="280" cy="860" r="8" fill="#6b7280"/>
  
  <!-- Side Buttons -->
  <rect x="-5" y="250" width="10" height="80" rx="5" ry="5" fill="#374151"/>
  <rect x="395" y="200" width="10" height="40" rx="5" ry="5" fill="#374151"/>
  <rect x="395" y="260" width="10" height="40" rx="5" ry="5" fill="#374151"/>
  
  <!-- Fingerprint Sensor (back) -->
  <circle cx="200" cy="750" r="20" fill="#4b5563" opacity="0.3"/>
  
  <defs>
    <linearGradient id="pixelGlass" x1="0%" y1="0%" x2="100%" y2="100%">
      <stop offset="0%" style="stop-color:#ffffff;stop-opacity:0.15" />
      <stop offset="100%" style="stop-color:#ffffff;stop-opacity:0" />
    </linearGradient>
  </defs>
</svg>