<svg width="1200" height="900" viewBox="0 0 1200 900" fill="none" xmlns="http://www.w3.org/2000/svg">
  <!-- Safari Browser Frame -->
  <defs>
    <linearGradient id="safariGradient" x1="0%" y1="0%" x2="100%" y2="100%">
      <stop offset="0%" style="stop-color:#fafafa;stop-opacity:1" />
      <stop offset="100%" style="stop-color:#f4f4f5;stop-opacity:1" />
    </linearGradient>
    <filter id="safariBrowserShadow" x="-20%" y="-20%" width="140%" height="140%">
      <feDropShadow dx="0" dy="8" stdDeviation="16" flood-color="#000000" flood-opacity="0.08"/>
    </filter>
  </defs>
  
  <!-- Browser Window -->
  <rect x="0" y="0" width="1200" height="900" rx="12" ry="12" fill="url(#safariGradient)" stroke="#d4d4d8" stroke-width="1" filter="url(#safariBrowserShadow)"/>
  
  <!-- Title Bar -->
  <rect x="0" y="0" width="1200" height="70" rx="12" ry="12" fill="#f4f4f5"/>
  <rect x="0" y="58" width="1200" height="12" fill="#f4f4f5"/>
  
  <!-- Traffic Lights (macOS style) -->
  <circle cx="22" cy="35" r="7" fill="#ff5f57"/>
  <circle cx="44" cy="35" r="7" fill="#ffbd2e"/>
  <circle cx="66" cy="35" r="7" fill="#28ca42"/>
  
  <!-- Address Bar -->
  <rect x="200" y="22" width="800" height="26" rx="13" ry="13" fill="#ffffff" stroke="#d4d4d8" stroke-width="1"/>
  
  <!-- Address Bar Text -->
  <rect x="220" y="29" width="180" height="12" rx="2" ry="2" fill="#a1a1aa" opacity="0.6"/>
  
  <!-- Back/Forward Buttons -->
  <rect x="110" y="26" width="18" height="18" rx="3" ry="3" fill="#71717a" opacity="0.6"/>
  <rect x="135" y="26" width="18" height="18" rx="3" ry="3" fill="#71717a" opacity="0.6"/>
  
  <!-- Share Button -->
  <rect x="1040" y="26" width="18" height="18" rx="3" ry="3" fill="#3b82f6"/>
  
  <!-- Sidebar Toggle -->
  <rect x="1080" y="26" width="18" height="18" rx="3" ry="3" fill="#71717a" opacity="0.6"/>
  
  <!-- Content Area -->
  <rect x="8" y="78" width="1184" height="814" rx="4" ry="4" fill="#ffffff"/>
  
  <!-- Tab -->
  <rect x="200" y="0" width="180" height="35" fill="#ffffff" stroke="#e4e4e7" stroke-width="1"/>
  <rect x="210" y="12" width="10" height="10" rx="2" ry="2" fill="#3b82f6"/>
  <rect x="225" y="15" width="100" height="5" rx="1" ry="1" fill="#71717a" opacity="0.5"/>
</svg>