<svg width="1200" height="900" viewBox="0 0 1200 900" fill="none" xmlns="http://www.w3.org/2000/svg">
  <!-- Firefox Browser Frame -->
  <defs>
    <linearGradient id="firefoxGradient" x1="0%" y1="0%" x2="100%" y2="100%">
      <stop offset="0%" style="stop-color:#fefefe;stop-opacity:1" />
      <stop offset="100%" style="stop-color:#f5f5f5;stop-opacity:1" />
    </linearGradient>
    <filter id="firefoxBrowserShadow" x="-20%" y="-20%" width="140%" height="140%">
      <feDropShadow dx="0" dy="8" stdDeviation="16" flood-color="#000000" flood-opacity="0.12"/>
    </filter>
  </defs>
  
  <!-- Browser Window -->
  <rect x="0" y="0" width="1200" height="900" rx="6" ry="6" fill="url(#firefoxGradient)" stroke="#d1d5db" stroke-width="2" filter="url(#firefoxBrowserShadow)"/>
  
  <!-- Title Bar -->
  <rect x="0" y="0" width="1200" height="70" rx="6" ry="6" fill="#f9fafb"/>
  <rect x="0" y="64" width="1200" height="6" fill="#f9fafb"/>
  
  <!-- Traffic Lights -->
  <circle cx="25" cy="35" r="8" fill="#ff5f57"/>
  <circle cx="50" cy="35" r="8" fill="#ffbd2e"/>
  <circle cx="75" cy="35" r="8" fill="#28ca42"/>
  
  <!-- Address Bar -->
  <rect x="140" y="20" width="920" height="30" rx="4" ry="4" fill="#ffffff" stroke="#d1d5db" stroke-width="1"/>
  
  <!-- Address Bar Text -->
  <rect x="155" y="28" width="220" height="14" rx="2" ry="2" fill="#9ca3af" opacity="0.5"/>
  
  <!-- Navigation Buttons -->
  <rect x="105" y="25" width="20" height="20" rx="2" ry="2" fill="#6b7280" opacity="0.6"/>
  
  <!-- Menu Button -->
  <rect x="1075" y="25" width="20" height="20" rx="2" ry="2" fill="#ff7139"/>
  
  <!-- Extensions Area -->
  <rect x="1105" y="25" width="20" height="20" rx="2" ry="2" fill="#6b7280" opacity="0.4"/>
  <rect x="1135" y="25" width="20" height="20" rx="2" ry="2" fill="#6b7280" opacity="0.4"/>
  
  <!-- Content Area -->
  <rect x="8" y="78" width="1184" height="814" rx="4" ry="4" fill="#ffffff"/>
  
  <!-- Tab -->
  <rect x="140" y="0" width="220" height="35" fill="#ffffff"/>
  <rect x="150" y="12" width="12" height="12" rx="2" ry="2" fill="#ff7139"/>
  <rect x="170" y="15" width="140" height="6" rx="1" ry="1" fill="#6b7280" opacity="0.6"/>
  
  <!-- Close tab button -->
  <rect x="335" y="15" width="10" height="10" rx="1" ry="1" fill="#9ca3af" opacity="0.6"/>
</svg>