<svg width="1600" height="1200" viewBox="0 0 1600 1200" fill="none" xmlns="http://www.w3.org/2000/svg">
  <!-- Desktop Monitor Frame -->
  <defs>
    <linearGradient id="monitorGradient" x1="0%" y1="0%" x2="100%" y2="100%">
      <stop offset="0%" style="stop-color:#1f2937;stop-opacity:1" />
      <stop offset="100%" style="stop-color:#111827;stop-opacity:1" />
    </linearGradient>
    <linearGradient id="monitorScreenGradient" x1="0%" y1="0%" x2="100%" y2="100%">
      <stop offset="0%" style="stop-color:#374151;stop-opacity:1" />
      <stop offset="100%" style="stop-color:#1f2937;stop-opacity:1" />
    </linearGradient>
    <filter id="monitorShadow" x="-20%" y="-20%" width="140%" height="140%">
      <feDropShadow dx="0" dy="16" stdDeviation="32" flood-color="#000000" flood-opacity="0.25"/>
    </filter>
  </defs>
  
  <!-- Base Shadow -->
  <ellipse cx="800" cy="1150" rx="300" ry="25" fill="black" opacity="0.15" filter="url(#monitorShadow)"/>
  
  <!-- Monitor Bezel -->
  <rect x="50" y="50" width="1500" height="950" rx="15" ry="15" fill="url(#monitorGradient)" stroke="#4b5563" stroke-width="4"/>
  
  <!-- Screen Area -->
  <rect x="120" y="120" width="1360" height="850" rx="8" ry="8" fill="url(#monitorScreenGradient)"/>
  
  <!-- Power LED -->
  <circle cx="800" cy="1020" r="4" fill="#22c55e"/>
  
  <!-- Brand Logo Area -->
  <rect x="750" y="1035" width="100" height="15" rx="2" ry="2" fill="#6b7280" opacity="0.4"/>
  
  <!-- Stand -->
  <rect x="750" y="1000" width="100" height="120" rx="8" ry="8" fill="url(#monitorGradient)"/>
  
  <!-- Base -->
  <ellipse cx="800" cy="1120" rx="200" ry="30" fill="url(#monitorGradient)"/>
  <rect x="600" y="1090" width="400" height="60" rx="30" ry="30" fill="url(#monitorGradient)"/>
  
  <!-- Screen Glass Effect -->
  <rect x="120" y="120" width="1360" height="850" rx="8" ry="8" fill="url(#monitorGlass)" opacity="0.06"/>
  
  <!-- Webcam -->
  <circle cx="800" cy="80" r="5" fill="#6b7280"/>
  
  <!-- Control Buttons -->
  <rect x="1400" y="980" width="15" height="15" rx="2" ry="2" fill="#6b7280" opacity="0.6"/>
  <rect x="1425" y="980" width="15" height="15" rx="2" ry="2" fill="#6b7280" opacity="0.6"/>
  <rect x="1450" y="980" width="15" height="15" rx="2" ry="2" fill="#6b7280" opacity="0.6"/>
  
  <defs>
    <linearGradient id="monitorGlass" x1="0%" y1="0%" x2="100%" y2="100%">
      <stop offset="0%" style="stop-color:#ffffff;stop-opacity:0.15" />
      <stop offset="100%" style="stop-color:#ffffff;stop-opacity:0" />
    </linearGradient>
  </defs>
</svg>