<svg width="1800" height="1400" viewBox="0 0 1800 1400" fill="none" xmlns="http://www.w3.org/2000/svg">
  <!-- iMac 24" Frame -->
  <defs>
    <linearGradient id="imacGradient" x1="0%" y1="0%" x2="100%" y2="100%">
      <stop offset="0%" style="stop-color:#f3f4f6;stop-opacity:1" />
      <stop offset="100%" style="stop-color:#e5e7eb;stop-opacity:1" />
    </linearGradient>
    <linearGradient id="imacScreenGradient" x1="0%" y1="0%" x2="100%" y2="100%">
      <stop offset="0%" style="stop-color:#1f2937;stop-opacity:1" />
      <stop offset="100%" style="stop-color:#111827;stop-opacity:1" />
    </linearGradient>
    <filter id="imacShadow" x="-20%" y="-20%" width="140%" height="140%">
      <feDropShadow dx="0" dy="20" stdDeviation="40" flood-color="#000000" flood-opacity="0.15"/>
    </filter>
  </defs>
  
  <!-- Base Shadow -->
  <ellipse cx="900" cy="1350" rx="400" ry="30" fill="black" opacity="0.1" filter="url(#imacShadow)"/>
  
  <!-- Monitor Bezel -->
  <rect x="50" y="50" width="1700" height="1100" rx="40" ry="40" fill="url(#imacGradient)" stroke="#d1d5db" stroke-width="4"/>
  
  <!-- Screen Area -->
  <rect x="165" y="165" width="1470" height="920" rx="20" ry="20" fill="url(#imacScreenGradient)"/>
  
  <!-- Apple Logo -->
  <circle cx="900" cy="1120" r="15" fill="#9ca3af" opacity="0.5"/>
  
  <!-- Stand -->
  <rect x="850" y="1150" width="100" height="180" rx="15" ry="15" fill="url(#imacGradient)"/>
  
  <!-- Base -->
  <ellipse cx="900" cy="1330" rx="300" ry="40" fill="url(#imacGradient)"/>
  <rect x="600" y="1290" width="600" height="80" rx="40" ry="40" fill="url(#imacGradient)"/>
  
  <!-- Chin (bottom bezel) -->
  <rect x="50" y="1085" width="1700" height="65" fill="url(#imacGradient)"/>
  
  <!-- Screen Glass Effect -->
  <rect x="165" y="165" width="1470" height="920" rx="20" ry="20" fill="url(#imacGlass)" opacity="0.08"/>
  
  <!-- Webcam -->
  <circle cx="900" cy="100" r="6" fill="#374151"/>
  
  <defs>
    <linearGradient id="imacGlass" x1="0%" y1="0%" x2="100%" y2="100%">
      <stop offset="0%" style="stop-color:#ffffff;stop-opacity:0.3" />
      <stop offset="100%" style="stop-color:#ffffff;stop-opacity:0" />
    </linearGradient>
  </defs>
</svg>