<svg width="1000" height="1250" viewBox="0 0 1000 1250" fill="none" xmlns="http://www.w3.org/2000/svg">
  <!-- iPad Pro Frame -->
  <defs>
    <linearGradient id="ipadGradient" x1="0%" y1="0%" x2="100%" y2="100%">
      <stop offset="0%" style="stop-color:#4b5563;stop-opacity:1" />
      <stop offset="100%" style="stop-color:#374151;stop-opacity:1" />
    </linearGradient>
    <filter id="ipadShadow" x="-20%" y="-20%" width="140%" height="140%">
      <feDropShadow dx="0" dy="12" stdDeviation="24" flood-color="#000000" flood-opacity="0.2"/>
    </filter>
  </defs>
  
  <!-- Device Shadow -->
  <rect x="15" y="15" width="970" height="1220" rx="35" ry="35" fill="black" opacity="0.1" filter="url(#ipadShadow)"/>
  
  <!-- Device Body -->
  <rect x="0" y="0" width="1000" height="1250" rx="35" ry="35" fill="url(#ipadGradient)" stroke="#6b7280" stroke-width="3"/>
  
  <!-- Screen Area -->
  <rect x="85" y="85" width="830" height="1080" rx="20" ry="20" fill="#000000"/>
  
  <!-- Screen Glass Effect -->
  <rect x="85" y="85" width="830" height="1080" rx="20" ry="20" fill="url(#ipadGlass)" opacity="0.12"/>
  
  <!-- Home Indicator -->
  <rect x="460" y="1200" width="80" height="4" rx="2" ry="2" fill="#9ca3af"/>
  
  <!-- Front Camera -->
  <circle cx="500" cy="42.5" r="8" fill="#1f2937"/>
  
  <!-- Side Buttons -->
  <rect x="1005" y="200" width="8" height="100" rx="4" ry="4" fill="#4b5563"/>
  <rect x="1005" y="350" width="8" height="60" rx="4" ry="4" fill="#4b5563"/>
  
  <!-- Apple Pencil Charging Area -->
  <rect x="920" y="400" width="80" height="120" rx="5" ry="5" fill="#6b7280" opacity="0.3"/>
  
  <defs>
    <linearGradient id="ipadGlass" x1="0%" y1="0%" x2="100%" y2="100%">
      <stop offset="0%" style="stop-color:#ffffff;stop-opacity:0.25" />
      <stop offset="100%" style="stop-color:#ffffff;stop-opacity:0" />
    </linearGradient>
  </defs>
</svg>