<svg width="1500" height="1000" viewBox="0 0 1500 1000" fill="none" xmlns="http://www.w3.org/2000/svg">
  <!-- MacBook Pro Frame -->
  <defs>
    <linearGradient id="macbookGradient" x1="0%" y1="0%" x2="100%" y2="100%">
      <stop offset="0%" style="stop-color:#9ca3af;stop-opacity:1" />
      <stop offset="100%" style="stop-color:#6b7280;stop-opacity:1" />
    </linearGradient>
    <linearGradient id="screenGradient" x1="0%" y1="0%" x2="100%" y2="100%">
      <stop offset="0%" style="stop-color:#1f2937;stop-opacity:1" />
      <stop offset="100%" style="stop-color:#111827;stop-opacity:1" />
    </linearGradient>
    <filter id="macShadow" x="-20%" y="-20%" width="140%" height="140%">
      <feDropShadow dx="0" dy="16" stdDeviation="32" flood-color="#000000" flood-opacity="0.2"/>
    </filter>
  </defs>
  
  <!-- Laptop Base -->
  <ellipse cx="750" cy="950" rx="700" ry="40" fill="black" opacity="0.1" filter="url(#macShadow)"/>
  
  <!-- Screen Bezel -->
  <rect x="50" y="20" width="1400" height="900" rx="20" ry="20" fill="url(#macbookGradient)" stroke="#4b5563" stroke-width="3"/>
  
  <!-- Screen Area -->
  <rect x="150" y="45" width="1200" height="750" rx="8" ry="8" fill="url(#screenGradient)"/>
  
  <!-- Apple Logo -->
  <circle cx="750" cy="830" r="12" fill="#374151" opacity="0.3"/>
  
  <!-- Notch -->
  <rect x="720" y="20" width="60" height="15" rx="7.5" ry="7.5" fill="#1f2937"/>
  
  <!-- Keyboard Base -->
  <ellipse cx="750" cy="960" rx="750" ry="50" fill="url(#macbookGradient)"/>
  <rect x="0" y="920" width="1500" height="80" fill="url(#macbookGradient)"/>
  
  <!-- Trackpad -->
  <rect x="625" y="930" width="250" height="150" rx="15" ry="15" fill="#4b5563" opacity="0.6"/>
  
  <!-- Keyboard Keys (simplified representation) -->
  <g opacity="0.4">
    <rect x="200" y="940" width="1100" height="20" rx="2" ry="2" fill="#374151"/>
    <rect x="250" y="970" width="1000" height="20" rx="2" ry="2" fill="#374151"/>
  </g>
  
  <!-- Screen Glass Effect -->
  <rect x="150" y="45" width="1200" height="750" rx="8" ry="8" fill="url(#glassEffect)" opacity="0.1"/>
  
  <defs>
    <linearGradient id="glassEffect" x1="0%" y1="0%" x2="100%" y2="100%">
      <stop offset="0%" style="stop-color:#ffffff;stop-opacity:0.3" />
      <stop offset="100%" style="stop-color:#ffffff;stop-opacity:0" />
    </linearGradient>
  </defs>
</svg>