<svg width="1480" height="980" viewBox="0 0 1480 980" fill="none" xmlns="http://www.w3.org/2000/svg">
  <!-- MacBook Air Frame -->
  <defs>
    <linearGradient id="macbookAirGradient" x1="0%" y1="0%" x2="100%" y2="100%">
      <stop offset="0%" style="stop-color:#e5e7eb;stop-opacity:1" />
      <stop offset="100%" style="stop-color:#d1d5db;stop-opacity:1" />
    </linearGradient>
    <linearGradient id="airScreenGradient" x1="0%" y1="0%" x2="100%" y2="100%">
      <stop offset="0%" style="stop-color:#374151;stop-opacity:1" />
      <stop offset="100%" style="stop-color:#1f2937;stop-opacity:1" />
    </linearGradient>
    <filter id="airShadow" x="-20%" y="-20%" width="140%" height="140%">
      <feDropShadow dx="0" dy="12" stdDeviation="24" flood-color="#000000" flood-opacity="0.15"/>
    </filter>
  </defs>
  
  <!-- Laptop Base Shadow -->
  <ellipse cx="740" cy="930" rx="680" ry="35" fill="black" opacity="0.1" filter="url(#airShadow)"/>
  
  <!-- Screen Bezel -->
  <rect x="40" y="15" width="1400" height="880" rx="18" ry="18" fill="url(#macbookAirGradient)" stroke="#9ca3af" stroke-width="2"/>
  
  <!-- Screen Area -->
  <rect x="140" y="40" width="1200" height="800" rx="6" ry="6" fill="url(#airScreenGradient)"/>
  
  <!-- Apple Logo -->
  <circle cx="740" cy="810" r="10" fill="#9ca3af" opacity="0.4"/>
  
  <!-- Notch -->
  <rect x="715" y="15" width="50" height="12" rx="6" ry="6" fill="#374151"/>
  
  <!-- Keyboard Base -->
  <ellipse cx="740" cy="940" rx="740" ry="45" fill="url(#macbookAirGradient)"/>
  <rect x="0" y="900" width="1480" height="80" fill="url(#macbookAirGradient)"/>
  
  <!-- Trackpad -->
  <rect x="620" y="915" width="240" height="140" rx="12" ry="12" fill="#9ca3af" opacity="0.5"/>
  
  <!-- Keyboard Keys (simplified) -->
  <g opacity="0.3">
    <rect x="180" y="920" width="1120" height="18" rx="2" ry="2" fill="#6b7280"/>
    <rect x="220" y="945" width="1040" height="18" rx="2" ry="2" fill="#6b7280"/>
  </g>
  
  <!-- Screen Glass Effect -->
  <rect x="140" y="40" width="1200" height="800" rx="6" ry="6" fill="url(#airGlass)" opacity="0.08"/>
  
  <defs>
    <linearGradient id="airGlass" x1="0%" y1="0%" x2="100%" y2="100%">
      <stop offset="0%" style="stop-color:#ffffff;stop-opacity:0.4" />
      <stop offset="100%" style="stop-color:#ffffff;stop-opacity:0" />
    </linearGradient>
  </defs>
</svg>