<svg width="1000" height="760" viewBox="0 0 1000 760" fill="none" xmlns="http://www.w3.org/2000/svg">
  <!-- Generic Tablet Frame -->
  <defs>
    <linearGradient id="tabletGradient" x1="0%" y1="0%" x2="100%" y2="100%">
      <stop offset="0%" style="stop-color:#6b7280;stop-opacity:1" />
      <stop offset="100%" style="stop-color:#4b5563;stop-opacity:1" />
    </linearGradient>
    <filter id="tabletShadow" x="-20%" y="-20%" width="140%" height="140%">
      <feDropShadow dx="0" dy="10" stdDeviation="20" flood-color="#000000" flood-opacity="0.18"/>
    </filter>
  </defs>
  
  <!-- Device Shadow -->
  <rect x="12" y="12" width="976" height="736" rx="28" ry="28" fill="black" opacity="0.12" filter="url(#tabletShadow)"/>
  
  <!-- Device Body -->
  <rect x="0" y="0" width="1000" height="760" rx="28" ry="28" fill="url(#tabletGradient)" stroke="#9ca3af" stroke-width="3"/>
  
  <!-- Screen Area -->
  <rect x="60" y="60" width="880" height="640" rx="15" ry="15" fill="#000000"/>
  
  <!-- Screen Glass Effect -->
  <rect x="60" y="60" width="880" height="640" rx="15" ry="15" fill="url(#tabletGlass)" opacity="0.08"/>
  
  <!-- Front Camera -->
  <circle cx="500" cy="30" r="6" fill="#374151"/>
  
  <!-- Home Button -->
  <circle cx="500" cy="730" r="15" fill="#9ca3af" opacity="0.6"/>
  
  <!-- Side Buttons -->
  <rect x="1005" y="150" width="8" height="60" rx="4" ry="4" fill="#4b5563"/>
  <rect x="1005" y="240" width="8" height="40" rx="4" ry="4" fill="#4b5563"/>
  
  <!-- Speaker Grilles -->
  <rect x="200" y="15" width="100" height="4" rx="2" ry="2" fill="#6b7280"/>
  <rect x="700" y="15" width="100" height="4" rx="2" ry="2" fill="#6b7280"/>
  <rect x="200" y="741" width="100" height="4" rx="2" ry="2" fill="#6b7280"/>
  <rect x="700" y="741" width="100" height="4" rx="2" ry="2" fill="#6b7280"/>
  
  <defs>
    <linearGradient id="tabletGlass" x1="0%" y1="0%" x2="100%" y2="100%">
      <stop offset="0%" style="stop-color:#ffffff;stop-opacity:0.2" />
      <stop offset="100%" style="stop-color:#ffffff;stop-opacity:0" />
    </linearGradient>
  </defs>
</svg>